<?xml version="1.0" encoding="UTF-8"?>
<!DOCTYPE svg PUBLIC "-//W3C//DTD SVG 1.1//EN" "http://www.w3.org/Graphics/SVG/1.1/DTD/svg11.dtd">
<svg xmlns="http://www.w3.org/2000/svg" version="1.1" width="215px" height="225px" style="shape-rendering:geometricPrecision; text-rendering:geometricPrecision; image-rendering:optimizeQuality; fill-rule:evenodd; clip-rule:evenodd" xmlns:xlink="http://www.w3.org/1999/xlink">
<g><path style="opacity:1" fill="#f9f9f9" d="M -0.5,-0.5 C 71.1667,-0.5 142.833,-0.5 214.5,-0.5C 214.5,74.5 214.5,149.5 214.5,224.5C 142.833,224.5 71.1667,224.5 -0.5,224.5C -0.5,221.167 -0.5,217.833 -0.5,214.5C 1.00488,219.995 4.67155,222.995 10.5,223.5C 74.8748,223.826 139.208,223.493 203.5,222.5C 209.399,219.381 211.399,214.714 209.5,208.5C 209.144,196.583 207.81,184.916 205.5,173.5C 205.624,167.931 204.957,162.598 203.5,157.5C 203.259,152.306 202.593,147.306 201.5,142.5C 201.069,134.056 200.069,125.723 198.5,117.5C 198.144,108.951 197.144,100.618 195.5,92.5C 195.5,91.8333 195.5,91.1667 195.5,90.5C 195.55,84.6105 194.884,78.9438 193.5,73.5C 193.412,68.4636 192.912,63.4636 192,58.5C 190.975,56.313 189.475,54.6464 187.5,53.5C 175.011,52.5046 162.344,52.1713 149.5,52.5C 149.806,49.6146 149.473,46.9479 148.5,44.5C 148.768,42.901 148.434,41.5676 147.5,40.5C 144.106,20.6049 132.439,8.7716 112.5,5C 85.3013,0.671452 66.8013,11.1715 57,36.5C 55.8776,41.1016 55.3776,45.7682 55.5,50.5C 55.5,51.5 55.5,52.5 55.5,53.5C 41.8293,53.3334 28.1626,53.5001 14.5,54C 13.5842,54.2784 12.9175,54.7784 12.5,55.5C 11.2101,56.0577 10.3768,57.0577 10,58.5C 7.52183,97.1724 5.02183,135.839 2.5,174.5C 2.5,176.833 2.5,179.167 2.5,181.5C 1.69494,191.184 0.694939,200.85 -0.5,210.5C -0.5,140.167 -0.5,69.8333 -0.5,-0.5 Z"/></g>
<g><path style="opacity:1" fill="#269756" d="M 147.5,40.5 C 146.66,38.2083 145.66,35.875 144.5,33.5C 143.914,33.7093 143.414,34.0426 143,34.5C 142.71,32.9559 142.044,31.6226 141,30.5C 139.059,31.7528 137.226,33.7528 135.5,36.5C 136.43,38.1047 136.43,39.6047 135.5,41C 139.006,44.6087 139.339,48.6087 136.5,53C 136.833,53.3333 137.167,53.6667 137.5,54C 115.128,54.8555 92.7951,56.1889 70.5,58C 68.0743,61.0948 65.0743,63.4282 61.5,65C 64,65.8854 66.3333,67.0521 68.5,68.5C 70.5,67.8333 72.5,67.1667 74.5,66.5C 76.6454,67.6825 76.6454,69.1825 74.5,71C 74.8333,71.1667 75.1667,71.3333 75.5,71.5C 78.4163,69.3399 81.4163,69.0066 84.5,70.5C 76.554,72.7172 74.3873,77.7172 78,85.5C 80.0713,86.3639 81.738,87.6972 83,89.5C 83.0986,100.862 82.5986,112.195 81.5,123.5C 80.9576,120.35 79.7909,117.35 78,114.5C 76.0876,115.692 74.0876,116.692 72,117.5C 70.3427,120.089 70.0094,122.756 71,125.5C 69.6796,125.201 68.1796,125.034 66.5,125C 64.3605,123.759 64.0271,122.093 65.5,120C 65.2451,118.674 64.5784,117.674 63.5,117C 58.5111,116.501 53.5111,116.334 48.5,116.5C 48.3342,111.821 48.5008,107.155 49,102.5C 51.1354,100.722 53.6354,100.055 56.5,100.5C 56.3367,102.857 56.5034,105.19 57,107.5C 58.8265,111.037 61.1598,111.371 64,108.5C 64.3333,108.833 64.6667,109.167 65,109.5C 65.498,106.518 65.6646,103.518 65.5,100.5C 69.8689,100.467 74.2022,100.8 78.5,101.5C 78.3345,105.514 78.5012,109.514 79,113.5C 79.6667,112.833 80.3333,112.167 81,111.5C 81.5726,105.461 81.2393,99.4609 80,93.5C 78.786,91.9512 77.286,90.7845 75.5,90C 75.8333,88.3333 76.1667,86.6667 76.5,85C 75.1209,81.1259 74.1209,77.4592 73.5,74C 70.3717,73.9418 70.0384,74.7752 72.5,76.5C 69.4167,78.4172 67.25,81.0838 66,84.5C 65.6667,84.1667 65.3333,83.8333 65,83.5C 63.7043,85.8146 61.7043,86.8146 59,86.5C 56.7794,86.6068 54.9461,85.9402 53.5,84.5C 65.6268,85.8848 69.7935,80.8848 66,69.5C 56.0041,63.3869 50.1708,66.0535 48.5,77.5C 47.3659,75.0336 47.1993,72.367 48,69.5C 49.008,67.741 50.508,66.5743 52.5,66C 52.1667,65.6667 51.8333,65.3333 51.5,65C 53.1667,64.6667 54.8333,64.3333 56.5,64C 56.1667,63.6667 55.8333,63.3333 55.5,63C 57.9225,59.7748 60.9225,58.9415 64.5,60.5C 64.3398,58.8008 64.5065,57.1341 65,55.5C 66.9268,53.7713 68.0935,51.6047 68.5,49C 67.8137,44.2438 66.647,39.7438 65,35.5C 66.7267,36.374 68.5601,36.2074 70.5,35C 72.0665,32.6996 73.2332,30.1996 74,27.5C 74.414,27.9574 74.914,28.2907 75.5,28.5C 76.2621,27.3717 76.9288,26.2051 77.5,25C 82.2074,25.0168 83.2074,23.3502 80.5,20C 80.9574,19.586 81.2907,19.086 81.5,18.5C 83.7961,18.6758 86.1294,18.3425 88.5,17.5C 88.5,16.1667 88.5,14.8333 88.5,13.5C 84.7846,13.1961 81.2846,13.8627 78,15.5C 77.3109,14.6433 76.4776,13.9767 75.5,13.5C 67.9982,18.8455 62.4982,25.8455 59,34.5C 58.0012,40.0065 56.8345,45.3398 55.5,50.5C 55.3776,45.7682 55.8776,41.1016 57,36.5C 66.8013,11.1715 85.3013,0.671452 112.5,5C 132.439,8.7716 144.106,20.6049 147.5,40.5 Z"/></g>
<g><path style="opacity:1" fill="#1f9b55" d="M 48.5,77.5 C 49.7787,80.1117 51.4453,82.4451 53.5,84.5C 54.9461,85.9402 56.7794,86.6068 59,86.5C 61.7043,86.8146 63.7043,85.8146 65,83.5C 65.3333,83.8333 65.6667,84.1667 66,84.5C 67.25,81.0838 69.4167,78.4172 72.5,76.5C 70.0384,74.7752 70.3717,73.9418 73.5,74C 74.1209,77.4592 75.1209,81.1259 76.5,85C 76.1667,86.6667 75.8333,88.3333 75.5,90C 77.286,90.7845 78.786,91.9512 80,93.5C 81.2393,99.4609 81.5726,105.461 81,111.5C 80.3333,112.167 79.6667,112.833 79,113.5C 78.5012,109.514 78.3345,105.514 78.5,101.5C 74.2022,100.8 69.8689,100.467 65.5,100.5C 65.6646,103.518 65.498,106.518 65,109.5C 64.6667,109.167 64.3333,108.833 64,108.5C 61.1598,111.371 58.8265,111.037 57,107.5C 56.5034,105.19 56.3367,102.857 56.5,100.5C 53.6354,100.055 51.1354,100.722 49,102.5C 48.5008,107.155 48.3342,111.821 48.5,116.5C 42.9589,116.494 37.6256,116.827 32.5,117.5C 31.6678,127.483 31.1678,137.483 31,147.5C 29.0042,149.059 26.6709,149.726 24,149.5C 21.9063,149.464 19.9063,149.131 18,148.5C 16.1815,150.916 14.8482,153.582 14,156.5C 13.0565,155.737 12.5565,154.737 12.5,153.5C 13.9605,149.014 13.7938,144.68 12,140.5C 11.0683,147.2 9.9016,153.867 8.5,160.5C 9.30705,162.961 8.80705,165.294 7,167.5C 6.34862,165.765 6.51529,164.098 7.5,162.5C 7.04311,161.702 6.37644,161.369 5.5,161.5C 7.24329,132.183 8.74329,102.85 10,73.5C 10.0993,67.2944 10.9326,61.2944 12.5,55.5C 12.9175,54.7784 13.5842,54.2784 14.5,54C 28.1626,53.5001 41.8293,53.3334 55.5,53.5C 55.5,52.5 55.5,51.5 55.5,50.5C 56.8345,45.3398 58.0012,40.0065 59,34.5C 62.4982,25.8455 67.9982,18.8455 75.5,13.5C 76.4776,13.9767 77.3109,14.6433 78,15.5C 81.2846,13.8627 84.7846,13.1961 88.5,13.5C 88.5,14.8333 88.5,16.1667 88.5,17.5C 86.1294,18.3425 83.7961,18.6758 81.5,18.5C 81.2907,19.086 80.9574,19.586 80.5,20C 83.2074,23.3502 82.2074,25.0168 77.5,25C 76.9288,26.2051 76.2621,27.3717 75.5,28.5C 74.914,28.2907 74.414,27.9574 74,27.5C 73.2332,30.1996 72.0665,32.6996 70.5,35C 68.5601,36.2074 66.7267,36.374 65,35.5C 66.647,39.7438 67.8137,44.2438 68.5,49C 68.0935,51.6047 66.9268,53.7713 65,55.5C 64.5065,57.1341 64.3398,58.8008 64.5,60.5C 60.9225,58.9415 57.9225,59.7748 55.5,63C 55.8333,63.3333 56.1667,63.6667 56.5,64C 54.8333,64.3333 53.1667,64.6667 51.5,65C 51.8333,65.3333 52.1667,65.6667 52.5,66C 50.508,66.5743 49.008,67.741 48,69.5C 47.1993,72.367 47.3659,75.0336 48.5,77.5 Z"/></g>
<g><path style="opacity:1" fill="#f7f8f7" d="M 133.5,47.5 C 133.5,49.1667 133.5,50.8333 133.5,52.5C 112.5,52.5 91.5,52.5 70.5,52.5C 71.5796,27.602 84.5796,16.7687 109.5,20C 124.1,23.4321 132.1,32.5988 133.5,47.5 Z"/></g>
<g><path style="opacity:1" fill="#1f9b56" d="M 147.5,40.5 C 148.434,41.5676 148.768,42.901 148.5,44.5C 147.945,48.0122 148.612,51.0122 150.5,53.5C 152.84,54.8395 154.173,56.5062 154.5,58.5C 163.386,58.1502 172.386,57.4835 181.5,56.5C 183.619,56.5976 185.286,57.4309 186.5,59C 185.5,59.3333 184.5,59.6667 183.5,60C 185.402,60.1992 186.902,61.0325 188,62.5C 187.836,67.1547 187.836,71.8214 188,76.5C 188.45,79.1059 189.95,80.4392 192.5,80.5C 193.948,88.9195 194.448,97.2528 194,105.5C 191.226,104.477 188.393,104.477 185.5,105.5C 186.259,101.76 184.759,100.093 181,100.5C 176.261,101.256 175.094,103.756 177.5,108C 177.695,110.352 177.028,112.352 175.5,114C 171.986,115.629 168.32,116.795 164.5,117.5C 158.946,116.903 153.446,116.236 148,115.5C 146.303,116.364 145.137,117.697 144.5,119.5C 144.649,123.975 144.982,128.475 145.5,133C 144.422,135.137 142.922,136.97 141,138.5C 136.983,136.292 133.483,133.625 130.5,130.5C 129.196,129.013 128.03,127.346 127,125.5C 126.333,113.167 126.333,100.833 127,88.5C 134.162,85.852 135.995,81.1854 132.5,74.5C 130.869,72.7026 128.869,71.5359 126.5,71C 112.504,70.5001 98.504,70.3334 84.5,70.5C 81.4163,69.0066 78.4163,69.3399 75.5,71.5C 75.1667,71.3333 74.8333,71.1667 74.5,71C 76.6454,69.1825 76.6454,67.6825 74.5,66.5C 72.5,67.1667 70.5,67.8333 68.5,68.5C 66.3333,67.0521 64,65.8854 61.5,65C 65.0743,63.4282 68.0743,61.0948 70.5,58C 92.7951,56.1889 115.128,54.8555 137.5,54C 137.167,53.6667 136.833,53.3333 136.5,53C 139.339,48.6087 139.006,44.6087 135.5,41C 136.43,39.6047 136.43,38.1047 135.5,36.5C 137.226,33.7528 139.059,31.7528 141,30.5C 142.044,31.6226 142.71,32.9559 143,34.5C 143.414,34.0426 143.914,33.7093 144.5,33.5C 145.66,35.875 146.66,38.2083 147.5,40.5 Z"/></g>
<g><path style="opacity:1" fill="#a5cdb8" d="M 133.5,47.5 C 134.461,49.2646 134.795,51.2646 134.5,53.5C 112.993,53.8306 91.6601,53.4973 70.5,52.5C 91.5,52.5 112.5,52.5 133.5,52.5C 133.5,50.8333 133.5,49.1667 133.5,47.5 Z"/></g>
<g><path style="opacity:1" fill="#b0d3bc" d="M 148.5,44.5 C 149.473,46.9479 149.806,49.6146 149.5,52.5C 162.344,52.1713 175.011,52.5046 187.5,53.5C 175.167,53.5 162.833,53.5 150.5,53.5C 148.612,51.0122 147.945,48.0122 148.5,44.5 Z"/></g>
<g><path style="opacity:1" fill="#f5f8f6" d="M 53.5,84.5 C 51.4453,82.4451 49.7787,80.1117 48.5,77.5C 50.1708,66.0535 56.0041,63.3869 66,69.5C 69.7935,80.8848 65.6268,85.8848 53.5,84.5 Z"/></g>
<g><path style="opacity:1" fill="#f7f6f5" d="M 84.5,70.5 C 98.504,70.3334 112.504,70.5001 126.5,71C 128.869,71.5359 130.869,72.7026 132.5,74.5C 135.995,81.1854 134.162,85.852 127,88.5C 126.333,100.833 126.333,113.167 127,125.5C 128.03,127.346 129.196,129.013 130.5,130.5C 135.787,138.75 141.787,146.416 148.5,153.5C 150.062,157.392 152.395,160.725 155.5,163.5C 160.478,171.137 165.812,178.47 171.5,185.5C 176.412,191.441 177.579,198.108 175,205.5C 173.127,207.709 170.96,209.542 168.5,211C 125.167,211.667 81.8333,211.667 38.5,211C 30.1543,207.471 27.3209,201.304 30,192.5C 38.3797,181.626 46.5463,170.626 54.5,159.5C 64.238,148.09 73.238,136.09 81.5,123.5C 82.5986,112.195 83.0986,100.862 83,89.5C 81.738,87.6972 80.0713,86.3639 78,85.5C 74.3873,77.7172 76.554,72.7172 84.5,70.5 Z"/></g>
<g><path style="opacity:1" fill="#3a8f5b" d="M 12.5,55.5 C 10.9326,61.2944 10.0993,67.2944 10,73.5C 8.74329,102.85 7.24329,132.183 5.5,161.5C 4.25447,165.881 3.25447,170.214 2.5,174.5C 5.02183,135.839 7.52183,97.1724 10,58.5C 10.3768,57.0577 11.2101,56.0577 12.5,55.5 Z"/></g>
<g><path style="opacity:1" fill="#81b899" d="M 193.5,73.5 C 194.884,78.9438 195.55,84.6105 195.5,90.5C 194.116,85.0562 193.45,79.3895 193.5,73.5 Z"/></g>
<g><path style="opacity:1" fill="#209652" d="M 150.5,53.5 C 162.833,53.5 175.167,53.5 187.5,53.5C 189.475,54.6464 190.975,56.313 192,58.5C 192.912,63.4636 193.412,68.4636 193.5,73.5C 193.45,79.3895 194.116,85.0562 195.5,90.5C 195.5,91.1667 195.5,91.8333 195.5,92.5C 195.5,96.1667 195.5,99.8333 195.5,103.5C 195.216,106.777 195.549,109.943 196.5,113C 189.019,120.315 181.686,127.815 174.5,135.5C 172.167,137.167 170.167,139.167 168.5,141.5C 164.808,144.862 161.141,148.195 157.5,151.5C 155.537,152.96 153.704,154.627 152,156.5C 150.961,155.29 149.794,154.29 148.5,153.5C 141.787,146.416 135.787,138.75 130.5,130.5C 133.483,133.625 136.983,136.292 141,138.5C 142.922,136.97 144.422,135.137 145.5,133C 144.982,128.475 144.649,123.975 144.5,119.5C 145.137,117.697 146.303,116.364 148,115.5C 153.446,116.236 158.946,116.903 164.5,117.5C 168.32,116.795 171.986,115.629 175.5,114C 177.028,112.352 177.695,110.352 177.5,108C 175.094,103.756 176.261,101.256 181,100.5C 184.759,100.093 186.259,101.76 185.5,105.5C 188.393,104.477 191.226,104.477 194,105.5C 194.448,97.2528 193.948,88.9195 192.5,80.5C 189.95,80.4392 188.45,79.1059 188,76.5C 187.836,71.8214 187.836,67.1547 188,62.5C 186.902,61.0325 185.402,60.1992 183.5,60C 184.5,59.6667 185.5,59.3333 186.5,59C 185.286,57.4309 183.619,56.5976 181.5,56.5C 172.386,57.4835 163.386,58.1502 154.5,58.5C 154.173,56.5062 152.84,54.8395 150.5,53.5 Z"/></g>
<g><path style="opacity:1" fill="#f0bc25" d="M 105.5,97.5 C 113.957,98.437 115.624,102.27 110.5,109C 103.667,110.167 100.833,107.333 102,100.5C 103.145,99.3636 104.312,98.3636 105.5,97.5 Z"/></g>
<g><path style="opacity:1" fill="#68a788" d="M 195.5,92.5 C 197.144,100.618 198.144,108.951 198.5,117.5C 197.5,112.833 196.5,108.167 195.5,103.5C 195.5,99.8333 195.5,96.1667 195.5,92.5 Z"/></g>
<g><path style="opacity:1" fill="#209651" d="M 81.5,123.5 C 73.238,136.09 64.238,148.09 54.5,159.5C 37.1667,166.833 19.8333,174.167 2.5,181.5C 2.5,179.167 2.5,176.833 2.5,174.5C 3.25447,170.214 4.25447,165.881 5.5,161.5C 6.37644,161.369 7.04311,161.702 7.5,162.5C 6.51529,164.098 6.34862,165.765 7,167.5C 8.80705,165.294 9.30705,162.961 8.5,160.5C 9.9016,153.867 11.0683,147.2 12,140.5C 13.7938,144.68 13.9605,149.014 12.5,153.5C 12.5565,154.737 13.0565,155.737 14,156.5C 14.8482,153.582 16.1815,150.916 18,148.5C 19.9063,149.131 21.9063,149.464 24,149.5C 26.6709,149.726 29.0042,149.059 31,147.5C 31.1678,137.483 31.6678,127.483 32.5,117.5C 37.6256,116.827 42.9589,116.494 48.5,116.5C 53.5111,116.334 58.5111,116.501 63.5,117C 64.5784,117.674 65.2451,118.674 65.5,120C 64.0271,122.093 64.3605,123.759 66.5,125C 68.1796,125.034 69.6796,125.201 71,125.5C 70.0094,122.756 70.3427,120.089 72,117.5C 74.0876,116.692 76.0876,115.692 78,114.5C 79.7909,117.35 80.9576,120.35 81.5,123.5 Z"/></g>
<g><path style="opacity:1" fill="#f8b916" d="M 97.5,118.5 C 109.625,117.766 113.125,122.766 108,133.5C 97.144,139.07 91.8107,135.737 92,123.5C 93.7297,121.598 95.563,119.931 97.5,118.5 Z"/></g>
<g><path style="opacity:1" fill="#146f59" d="M 195.5,103.5 C 196.5,108.167 197.5,112.833 198.5,117.5C 200.069,125.723 201.069,134.056 201.5,142.5C 200.833,141.167 200.167,139.833 199.5,138.5C 197.499,139.41 196.165,138.577 195.5,136C 190.931,134.217 186.265,132.717 181.5,131.5C 178.551,132.733 177.884,134.733 179.5,137.5C 178.043,140.602 176.043,141.102 173.5,139C 174.167,138 174.833,137 175.5,136C 175.272,135.601 174.938,135.435 174.5,135.5C 181.686,127.815 189.019,120.315 196.5,113C 195.549,109.943 195.216,106.777 195.5,103.5 Z"/></g>
<g><path style="opacity:1" fill="#076558" d="M 199.5,138.5 C 199.782,141.347 199.782,144.013 199.5,146.5C 197.824,143.992 195.658,141.992 193,140.5C 185.024,143.367 176.857,144.367 168.5,143.5C 169.55,142.571 169.55,141.905 168.5,141.5C 170.167,139.167 172.167,137.167 174.5,135.5C 174.938,135.435 175.272,135.601 175.5,136C 174.833,137 174.167,138 173.5,139C 176.043,141.102 178.043,140.602 179.5,137.5C 177.884,134.733 178.551,132.733 181.5,131.5C 186.265,132.717 190.931,134.217 195.5,136C 196.165,138.577 197.499,139.41 199.5,138.5 Z"/></g>
<g><path style="opacity:1" fill="#075a54" d="M 199.5,138.5 C 200.167,139.833 200.833,141.167 201.5,142.5C 201.837,146.308 201.337,149.974 200,153.5C 199.667,152.5 199.333,151.5 199,150.5C 196.861,151.769 194.695,151.769 192.5,150.5C 193.246,149.264 193.579,147.93 193.5,146.5C 187.271,145.978 181.271,146.644 175.5,148.5C 174.558,148.392 173.725,148.059 173,147.5C 171.174,149.074 169.007,149.907 166.5,150C 170.788,150.424 174.955,149.924 179,148.5C 180.255,149.211 181.421,150.044 182.5,151C 182.167,151.333 181.833,151.667 181.5,152C 173.522,152.183 165.522,152.016 157.5,151.5C 161.141,148.195 164.808,144.862 168.5,141.5C 169.55,141.905 169.55,142.571 168.5,143.5C 176.857,144.367 185.024,143.367 193,140.5C 195.658,141.992 197.824,143.992 199.5,146.5C 199.782,144.013 199.782,141.347 199.5,138.5 Z"/></g>
<g><path style="opacity:1" fill="#f9aa21" d="M 112.5,142.5 C 119.725,142.22 122.891,145.553 122,152.5C 117.62,157.343 112.954,157.677 108,153.5C 106.393,148.438 107.893,144.772 112.5,142.5 Z"/></g>
<g><path style="opacity:1" fill="#0d4d4d" d="M 201.5,142.5 C 202.593,147.306 203.259,152.306 203.5,157.5C 202.71,156.391 202.21,155.058 202,153.5C 201.242,155.769 201.409,157.936 202.5,160C 201.91,161.299 200.91,162.132 199.5,162.5C 195.61,161.158 191.61,160.325 187.5,160C 180.138,159.765 172.805,159.265 165.5,158.5C 163.444,159.048 161.777,160.214 160.5,162C 162.612,163.217 162.279,164.383 159.5,165.5C 158.526,164.365 157.359,163.365 156,162.5C 155.601,162.728 155.435,163.062 155.5,163.5C 152.395,160.725 150.062,157.392 148.5,153.5C 149.794,154.29 150.961,155.29 152,156.5C 153.704,154.627 155.537,152.96 157.5,151.5C 165.522,152.016 173.522,152.183 181.5,152C 181.833,151.667 182.167,151.333 182.5,151C 181.421,150.044 180.255,149.211 179,148.5C 174.955,149.924 170.788,150.424 166.5,150C 169.007,149.907 171.174,149.074 173,147.5C 173.725,148.059 174.558,148.392 175.5,148.5C 181.271,146.644 187.271,145.978 193.5,146.5C 193.579,147.93 193.246,149.264 192.5,150.5C 194.695,151.769 196.861,151.769 199,150.5C 199.333,151.5 199.667,152.5 200,153.5C 201.337,149.974 201.837,146.308 201.5,142.5 Z"/></g>
<g><path style="opacity:1" fill="#f99814" d="M 116.5,164.5 C 114.08,164.292 111.747,164.626 109.5,165.5C 108.281,164.737 107.281,163.737 106.5,162.5C 103.091,165.839 98.924,167.505 94,167.5C 86.953,163.322 79.7863,162.988 72.5,166.5C 70.3855,165.966 68.5522,164.966 67,163.5C 66.6174,164.056 66.1174,164.389 65.5,164.5C 67.2807,160.595 69.7807,157.262 73,154.5C 87.6984,157.536 102.198,160.869 116.5,164.5 Z"/></g>
<g><path style="opacity:1" fill="#0c3f46" d="M 203.5,157.5 C 203.423,161.215 203.756,164.881 204.5,168.5C 203.681,171.305 203.181,174.305 203,177.5C 201.573,175.295 201.073,173.128 201.5,171C 200.449,169.615 199.116,168.615 197.5,168C 187.837,167.363 178.17,166.863 168.5,166.5C 168.5,167.5 168.5,168.5 168.5,169.5C 171.187,169.336 173.854,169.503 176.5,170C 174.5,170.333 172.5,170.667 170.5,171C 169.809,172.067 169.309,173.234 169,174.5C 168.206,172.064 166.706,169.73 164.5,167.5C 162.059,168.779 160.392,168.113 159.5,165.5C 162.279,164.383 162.612,163.217 160.5,162C 161.777,160.214 163.444,159.048 165.5,158.5C 172.805,159.265 180.138,159.765 187.5,160C 191.61,160.325 195.61,161.158 199.5,162.5C 200.91,162.132 201.91,161.299 202.5,160C 201.409,157.936 201.242,155.769 202,153.5C 202.21,155.058 202.71,156.391 203.5,157.5 Z"/></g>
<g><path style="opacity:1" fill="#60737b" d="M 203.5,157.5 C 204.957,162.598 205.624,167.931 205.5,173.5C 204.549,172.081 204.216,170.415 204.5,168.5C 203.756,164.881 203.423,161.215 203.5,157.5 Z"/></g>
<g><path style="opacity:1" fill="#f98b14" d="M 116.5,164.5 C 122.338,165.417 128.172,166.417 134,167.5C 136.855,167.554 139.522,166.888 142,165.5C 144.378,167.381 146.211,169.714 147.5,172.5C 146.175,171.047 145.342,171.381 145,173.5C 142.891,172.965 142.391,171.965 143.5,170.5C 142.919,168.276 141.586,167.443 139.5,168C 141.884,171.933 141.051,172.433 137,169.5C 136.044,170.579 135.211,171.745 134.5,173C 130.471,173.303 126.471,173.803 122.5,174.5C 115.511,172.823 108.678,173.489 102,176.5C 100.739,176.241 99.7387,175.574 99,174.5C 98.8091,176.708 98.3091,178.708 97.5,180.5C 97.51,173.686 94.1767,171.186 87.5,173C 86.3636,174.145 85.3636,175.312 84.5,176.5C 83.1993,175.038 81.6993,173.704 80,172.5C 74.8108,173.361 69.6442,174.361 64.5,175.5C 62.9622,175.327 61.4622,174.994 60,174.5C 58.2654,176.083 56.4321,177.416 54.5,178.5C 57.4347,173.235 61.1014,168.568 65.5,164.5C 66.1174,164.389 66.6174,164.056 67,163.5C 68.5522,164.966 70.3855,165.966 72.5,166.5C 79.7863,162.988 86.953,163.322 94,167.5C 98.924,167.505 103.091,165.839 106.5,162.5C 107.281,163.737 108.281,164.737 109.5,165.5C 111.747,164.626 114.08,164.292 116.5,164.5 Z"/></g>
<g><path style="opacity:1" fill="#163541" d="M 159.5,165.5 C 160.392,168.113 162.059,168.779 164.5,167.5C 166.706,169.73 168.206,172.064 169,174.5C 169.309,173.234 169.809,172.067 170.5,171C 172.5,170.667 174.5,170.333 176.5,170C 173.854,169.503 171.187,169.336 168.5,169.5C 168.5,168.5 168.5,167.5 168.5,166.5C 178.17,166.863 187.837,167.363 197.5,168C 199.116,168.615 200.449,169.615 201.5,171C 201.073,173.128 201.573,175.295 203,177.5C 203.181,174.305 203.681,171.305 204.5,168.5C 204.216,170.415 204.549,172.081 205.5,173.5C 207.81,184.916 209.144,196.583 209.5,208.5C 208.681,205.695 208.181,202.695 208,199.5C 207.667,199.833 207.333,200.167 207,200.5C 205.89,198.963 204.39,198.297 202.5,198.5C 202.492,192.792 202.992,192.459 204,197.5C 204.22,194.484 205.387,191.984 207.5,190C 206.751,188.266 206.251,186.433 206,184.5C 204.456,187.264 203.289,187.097 202.5,184C 199.968,183.381 197.635,182.381 195.5,181C 187.408,179.826 179.408,179.326 171.5,179.5C 171.5,181.5 171.5,183.5 171.5,185.5C 165.812,178.47 160.478,171.137 155.5,163.5C 155.435,163.062 155.601,162.728 156,162.5C 157.359,163.365 158.526,164.365 159.5,165.5 Z"/></g>
<g><path style="opacity:1" fill="#f97b11" d="M 147.5,172.5 C 149.063,173.945 150.396,175.611 151.5,177.5C 146.738,182.369 141.571,182.702 136,178.5C 130.708,180.135 126.208,182.968 122.5,187C 118.21,188.317 114.044,189.817 110,191.5C 106.442,191.125 103.109,190.125 100,188.5C 98.0126,189.218 96.1792,190.218 94.5,191.5C 91.1797,189.21 87.6797,188.543 84,189.5C 82.1551,187.65 80.1551,187.317 78,188.5C 74.4059,187.673 70.7392,187.007 67,186.5C 64.4953,187.383 61.9953,187.05 59.5,185.5C 54.7369,185.738 50.4035,187.072 46.5,189.5C 48.4354,185.293 51.1021,181.627 54.5,178.5C 56.4321,177.416 58.2654,176.083 60,174.5C 61.4622,174.994 62.9622,175.327 64.5,175.5C 69.6442,174.361 74.8108,173.361 80,172.5C 81.6993,173.704 83.1993,175.038 84.5,176.5C 84.9545,182.66 88.2878,184.827 94.5,183C 95.3734,181.955 96.3734,181.122 97.5,180.5C 98.3091,178.708 98.8091,176.708 99,174.5C 99.7387,175.574 100.739,176.241 102,176.5C 108.678,173.489 115.511,172.823 122.5,174.5C 126.471,173.803 130.471,173.303 134.5,173C 135.211,171.745 136.044,170.579 137,169.5C 141.051,172.433 141.884,171.933 139.5,168C 141.586,167.443 142.919,168.276 143.5,170.5C 142.391,171.965 142.891,172.965 145,173.5C 145.342,171.381 146.175,171.047 147.5,172.5 Z"/></g>
<g><path style="opacity:1" fill="#faf3eb" d="M 97.5,180.5 C 96.3734,181.122 95.3734,181.955 94.5,183C 88.2878,184.827 84.9545,182.66 84.5,176.5C 85.3636,175.312 86.3636,174.145 87.5,173C 94.1767,171.186 97.51,173.686 97.5,180.5 Z"/></g>
<g><path style="opacity:1" fill="#f96c15" d="M 151.5,177.5 C 155.858,182.373 159.691,187.706 163,193.5C 163.944,196.347 163.444,198.847 161.5,201C 122.833,201.667 84.1667,201.667 45.5,201C 41.4337,196.819 41.7671,192.986 46.5,189.5C 50.4035,187.072 54.7369,185.738 59.5,185.5C 61.9953,187.05 64.4953,187.383 67,186.5C 70.7392,187.007 74.4059,187.673 78,188.5C 80.1551,187.317 82.1551,187.65 84,189.5C 87.6797,188.543 91.1797,189.21 94.5,191.5C 96.1792,190.218 98.0126,189.218 100,188.5C 103.109,190.125 106.442,191.125 110,191.5C 114.044,189.817 118.21,188.317 122.5,187C 126.208,182.968 130.708,180.135 136,178.5C 141.571,182.702 146.738,182.369 151.5,177.5 Z"/></g>
<g><path style="opacity:1" fill="#15283a" d="M 54.5,159.5 C 46.5463,170.626 38.3797,181.626 30,192.5C 27.3209,201.304 30.1543,207.471 38.5,211C 81.8333,211.667 125.167,211.667 168.5,211C 170.96,209.542 173.127,207.709 175,205.5C 177.579,198.108 176.412,191.441 171.5,185.5C 171.5,183.5 171.5,181.5 171.5,179.5C 179.408,179.326 187.408,179.826 195.5,181C 197.635,182.381 199.968,183.381 202.5,184C 203.289,187.097 204.456,187.264 206,184.5C 206.251,186.433 206.751,188.266 207.5,190C 205.387,191.984 204.22,194.484 204,197.5C 202.992,192.459 202.492,192.792 202.5,198.5C 204.39,198.297 205.89,198.963 207,200.5C 207.333,200.167 207.667,199.833 208,199.5C 208.181,202.695 208.681,205.695 209.5,208.5C 211.399,214.714 209.399,219.381 203.5,222.5C 140.668,221.335 77.668,221.168 14.5,222C 12.9419,222.21 11.6085,222.71 10.5,223.5C 4.67155,222.995 1.00488,219.995 -0.5,214.5C -0.5,213.167 -0.5,211.833 -0.5,210.5C 0.694939,200.85 1.69494,191.184 2.5,181.5C 19.8333,174.167 37.1667,166.833 54.5,159.5 Z"/></g>
<g><path style="opacity:1" fill="#0b1725" d="M 203.5,222.5 C 139.208,223.493 74.8748,223.826 10.5,223.5C 11.6085,222.71 12.9419,222.21 14.5,222C 77.668,221.168 140.668,221.335 203.5,222.5 Z"/></g>
</svg>
